<?xml version="1.0" encoding="UTF-8" standalone="no"?>
<!-- Created with Inkscape (http://www.inkscape.org/) -->

<svg
   xmlns:dc="http://purl.org/dc/elements/1.1/"
   xmlns:cc="http://creativecommons.org/ns#"
   xmlns:rdf="http://www.w3.org/1999/02/22-rdf-syntax-ns#"
   xmlns:svg="http://www.w3.org/2000/svg"
   xmlns="http://www.w3.org/2000/svg"
   xmlns:sodipodi="http://sodipodi.sourceforge.net/DTD/sodipodi-0.dtd"
   xmlns:inkscape="http://www.inkscape.org/namespaces/inkscape"
   version="1.1"
   id="svg10"
   width="946.92651"
   height="233.60349"
   viewBox="0 0 946.92651 233.60349"
   sodipodi:docname="systemair.svg"
   inkscape:version="0.92.1 r15371">
  <metadata
     id="metadata16">
    <rdf:RDF>
      <cc:Work
         rdf:about="">
        <dc:format>image/svg+xml</dc:format>
        <dc:type
           rdf:resource="http://purl.org/dc/dcmitype/StillImage" />
        <dc:title></dc:title>
      </cc:Work>
    </rdf:RDF>
  </metadata>
  <defs
     id="defs14" />
  <sodipodi:namedview
     pagecolor="#ffffff"
     bordercolor="#666666"
     borderopacity="1"
     objecttolerance="10"
     gridtolerance="10"
     guidetolerance="10"
     inkscape:pageopacity="0"
     inkscape:pageshadow="2"
     inkscape:window-width="1920"
     inkscape:window-height="1051"
     id="namedview12"
     showgrid="false"
     fit-margin-top="0"
     fit-margin-left="0"
     fit-margin-right="0"
     fit-margin-bottom="0"
     inkscape:zoom="0.98734931"
     inkscape:cx="457.14616"
     inkscape:cy="-58.565177"
     inkscape:window-x="-9"
     inkscape:window-y="-9"
     inkscape:window-maximized="1"
     inkscape:current-layer="svg10" />
  <g
     id="g52"
     transform="translate(-16,-10)">
    <path
       style="fill:#1f529a"
       d="M 192.5,242.96814 C 147.67026,236.05796 113.86139,199.30738 111.11331,154.5 110.63127,146.64034 110.17895,144.47118 109,144.36535 c -0.825,-0.0741 -22.0875,-0.18656 -47.25,-0.25 L 16,144 V 77 10 H 125.5 235 l 0.14806,21.75 c 0.0814,11.9625 0.23981,22.425 0.35194,23.25 0.11213,0.825 0.27051,2.0625 0.35194,2.75 0.0814,0.6875 0.65429,1.25 1.27301,1.25 2.36433,0 13.70591,5.574112 21.37505,10.505316 9.13176,5.871661 20.90329,17.254073 26.75507,25.870665 20.93191,30.821649 21.68997,72.901039 1.86914,103.753859 -13.2513,20.62677 -34.82266,36.14571 -58.23071,41.89253 -9.64742,2.3685 -27.46946,3.32135 -36.3935,1.94577 z m 30.66203,-7.38254 c 17.88373,-3.4471 32.28843,-11.10425 45.31005,-24.0856 18.7825,-18.72441 27.3865,-40.47629 26.25958,-66.38717 C 293.93309,126.75144 288.9443,112.06171 278.59479,97.597 265.26068,78.960938 246.63647,67.189513 221,61.19424 L 217.5,60.375739 217,41.93787 216.5,23.5 h -91 -91 L 34.241313,77.25 33.982626,131 h 41.84202 c 23.013111,0 42.048774,0.20676 42.301484,0.45946 0.2527,0.25271 0.0199,3.92671 -0.51744,8.16446 -1.23331,9.72742 0.37972,24.92174 3.76525,35.46741 9.85636,30.70189 34.52238,53.22898 65.62606,59.93526 10.38166,2.23839 26.18212,2.48265 36.16203,0.55901 z m -28.63125,-7.63967 C 183.14421,226.17425 167.303,219.75354 159,213.5447 127.07761,189.67372 117.00442,146.9042 135.08394,112 143.02025,96.67821 154.72495,85.286764 170.5,77.531784 c 11.08584,-5.449772 18.3275,-7.423894 30.09514,-8.204121 39.39396,-2.611929 73.96916,22.46653 83.42692,60.512117 3.30092,13.27857 2.66286,32.29888 -1.47713,44.03289 -9.06578,25.69515 -30.46811,45.58588 -56.10541,52.1428 -8.86585,2.2675 -23.89777,3.17693 -31.90874,1.93046 z m 27.65384,-7.46477 c 13.42613,-2.78758 30.58829,-12.7059 39.19637,-22.65227 13.36827,-15.44663 19.43252,-33.00124 18.35497,-53.13341 C 278.72671,125.83951 271.74073,110.4614 258.06882,97 251.0557,90.094871 239.29734,82 236.28029,82 c -0.85451,0 -1.19759,1.379618 -1.05687,4.25 0.11459,2.3375 0.0783,15.275 -0.0806,28.75 l -0.28895,24.5 -1.78355,-5 c -4.76498,-13.35818 -13.58389,-25.64275 -22.40701,-31.21255 -19.30015,-12.183643 -47.61009,-10.088352 -62.47826,4.62418 -10.45097,10.34156 -15.64642,24.18621 -15.6068,41.58837 0.0301,13.22038 1.78436,20.20816 8.27087,32.94574 9.46968,18.59563 27.2142,32.62601 47.65088,37.67697 8.8519,2.18776 24.09276,2.34994 33.68462,0.35845 z M 40.240303,77.25 40.5,29.5 125.43747,29.244315 c 49.87967,-0.150152 85.16965,0.11769 85.5,0.648923 0.30939,0.497535 0.42758,7.415087 0.26265,15.372339 l -0.29989,14.46773 -9.55664,0.701502 C 176.48894,62.259256 154.14019,73.355794 138.57447,91.600758 132.31364,98.93922 124.13305,113.26848 121.93313,120.75 L 120.68342,125 H 80.332015 39.980606 Z M 393,189.3578 c 0,-0.53655 0.69982,-1.84905 1.55517,-2.91667 1.46637,-1.83031 1.48719,-1.7984 0.36454,0.55887 C 393.4619,190.06103 393,190.62834 393,189.3578 Z M 420,171 c 2.21228,-4.4 4.24732,-8 4.52232,-8 0.275,0 -1.31004,3.6 -3.52232,8 -2.21228,4.4 -4.24732,8 -4.52232,8 -0.275,0 1.31004,-3.6 3.52232,-8 z m -17,-0.6422 c 0,-0.53655 0.69982,-1.84905 1.55517,-2.91667 1.46637,-1.83031 1.48719,-1.7984 0.36454,0.55887 C 403.4619,171.06103 403,171.62834 403,170.3578 Z M 410.5,156 c 0.85325,-1.65 1.77636,-3 2.05136,-3 0.275,0 -0.19811,1.35 -1.05136,3 -0.85325,1.65 -1.77636,3 -2.05136,3 -0.275,0 0.19811,-1.35 1.05136,-3 z m 20.06429,-5.29313 c 0.37553,-0.98622 0.93469,-1.54122 1.24258,-1.23333 0.30789,0.30789 6.4e-4,1.11479 -0.68278,1.79313 -0.98762,0.98026 -1.10248,0.8654 -0.5598,-0.5598 z M 433,146 c 0.5887,-1.1 1.29537,-2 1.57037,-2 0.275,0 0.0183,0.9 -0.57037,2 -0.5887,1.1 -1.29537,2 -1.57037,2 -0.275,0 -0.0183,-0.9 0.57037,-2 z m -88.75,0.31067 c 0.9625,-0.25152 2.5375,-0.25152 3.5,0 0.9625,0.25153 0.175,0.45733 -1.75,0.45733 -1.925,0 -2.7125,-0.2058 -1.75,-0.45733 z m 12,0 c 0.9625,-0.25152 2.5375,-0.25152 3.5,0 0.9625,0.25153 0.175,0.45733 -1.75,0.45733 -1.925,0 -2.7125,-0.2058 -1.75,-0.45733 z m 138.48097,0.0334 c 0.67703,-0.27392 2.02703,-0.29059 3,-0.0371 0.97297,0.25354 0.41903,0.47766 -1.23097,0.49804 -1.65,0.0204 -2.44606,-0.18706 -1.76903,-0.46099 z m 10,0 c 0.67703,-0.27392 2.02703,-0.29059 3,-0.0371 0.97297,0.25354 0.41903,0.47766 -1.23097,0.49804 -1.65,0.0204 -2.44606,-0.18706 -1.76903,-0.46099 z m 98.51903,-0.0334 c 0.9625,-0.25152 2.5375,-0.25152 3.5,0 0.9625,0.25153 0.175,0.45733 -1.75,0.45733 -1.925,0 -2.7125,-0.2058 -1.75,-0.45733 z m 12.48097,0.0334 c 0.67703,-0.27392 2.02703,-0.29059 3,-0.0371 0.97297,0.25354 0.41903,0.47766 -1.23097,0.49804 -1.65,0.0204 -2.44606,-0.18706 -1.76903,-0.46099 z m 197,0 c 0.67703,-0.27392 2.02703,-0.29059 3,-0.0371 0.97297,0.25354 0.41903,0.47766 -1.23097,0.49804 -1.65,0.0204 -2.44606,-0.18706 -1.76903,-0.46099 z m 11.01903,-0.006 c 0.6875,-0.27741 1.8125,-0.27741 2.5,0 0.6875,0.27741 0.125,0.50439 -1.25,0.50439 -1.375,0 -1.9375,-0.22698 -1.25,-0.50439 z M 336.5,144.53611 c -3.86206,-1.7684 -2.0657,-1.79435 2.5,-0.0361 1.925,0.74131 2.825,1.36178 2,1.37882 -0.825,0.017 -2.85,-0.58718 -4.5,-1.34271 z m 26.3125,0.78078 c 0.72187,-0.28887 1.58438,-0.25335 1.91667,0.0789 0.33229,0.33229 -0.25834,0.56864 -1.3125,0.52522 -1.16495,-0.048 -1.4019,-0.28494 -0.60417,-0.60416 z m 53.75179,-0.61002 c 0.37553,-0.98622 0.93469,-1.54122 1.24258,-1.23333 0.30789,0.30789 6.4e-4,1.11479 -0.68278,1.79313 -0.98762,0.98026 -1.10248,0.8654 -0.5598,-0.5598 z M 489,145 c -1.82797,-1.18132 -0.24909,-1.18132 2.5,0 1.31874,0.56668 1.48906,0.87815 0.5,0.9144 -0.825,0.0302 -2.175,-0.38124 -3,-0.9144 z m 22,0 c 0.825,-0.53316 1.95,-0.96937 2.5,-0.96937 0.55,0 0.325,0.43621 -0.5,0.96937 -0.825,0.53316 -1.95,0.96937 -2.5,0.96937 -0.55,0 -0.325,-0.43621 0.5,-0.96937 z m 87.8125,0.31689 c 0.72187,-0.28887 1.58438,-0.25335 1.91667,0.0789 0.33229,0.33229 -0.25834,0.56864 -1.3125,0.52522 -1.16495,-0.048 -1.4019,-0.28494 -0.60417,-0.60416 z m 23,0 c 0.72187,-0.28887 1.58438,-0.25335 1.91667,0.0789 0.33229,0.33229 -0.25834,0.56864 -1.3125,0.52522 -1.16495,-0.048 -1.4019,-0.28494 -0.60417,-0.60416 z m 187,0 c 0.72187,-0.28887 1.58438,-0.25335 1.91667,0.0789 0.33229,0.33229 -0.25834,0.56864 -1.3125,0.52522 -1.16495,-0.048 -1.4019,-0.28494 -0.60417,-0.60416 z M 540.66667,144.33333 C 540.3,143.96667 540,129.14254 540,111.39083 V 79.114996 l -4.00742,-0.405586 -4.00743,-0.405586 4.25743,0.09809 L 540.5,78.5 l 0.26376,32.82852 0.26377,32.82853 7.39412,-0.32853 c 4.06677,-0.18068 7.18401,0.009 6.92722,0.42148 -0.5775,0.92766 -13.76304,1.0025 -14.6822,0.0833 z M 664.25,144.27153 c 2.0625,-0.21574 5.4375,-0.21574 7.5,0 2.0625,0.21575 0.375,0.39226 -3.75,0.39226 -4.125,0 -5.8125,-0.17651 -3.75,-0.39226 z m 48.5,0.005 c 1.7875,-0.22182 4.7125,-0.22182 6.5,0 1.7875,0.22183 0.325,0.40333 -3.25,0.40333 -3.575,0 -5.0375,-0.1815 -3.25,-0.40333 z m 43.90451,-0.0266 c -0.25494,-0.4125 3.05053,-0.75 7.34549,-0.75 4.29496,0 7.60043,0.3375 7.34549,0.75 -0.25494,0.4125 -3.56041,0.75 -7.34549,0.75 -3.78508,0 -7.09055,-0.3375 -7.34549,-0.75 z m 46.09549,-0.8219 c -3.87722,-2.10343 -3.43809,-2.82933 0.5,-0.82653 3.76952,1.91707 4.43665,2.41393 3.16667,2.35846 -0.50417,-0.022 -2.15417,-0.71139 -3.66667,-1.53193 z m 45.59508,0.0288 c -0.32569,-0.84872 -0.31156,-1.82372 0.0314,-2.16666 0.34295,-0.34295 0.62354,0.16201 0.62354,1.12213 0,1.5334 0.90078,1.70566 7.40788,1.41666 4.07434,-0.18095 7.19778,0.008 6.94099,0.421 -0.2568,0.4125 -3.60447,0.75 -7.43927,0.75 -5.36178,0 -7.10915,-0.35646 -7.56452,-1.54313 z m 31.1117,0.29111 c -0.26424,-0.68862 -0.35724,-19.02612 -0.20667,-40.75 L 879.52389,63.5 l 0.23806,40.20794 0.23805,40.20793 7.75,0.34082 7.75,0.34082 -7.78138,0.20125 c -5.46522,0.14134 -7.9244,-0.17143 -8.26184,-1.05078 z m 33.22037,0.54411 c -0.27111,-0.43565 2.8324,-0.64433 6.89668,-0.46373 l 7.3896,0.32837 0.29602,-23.57889 0.29603,-23.57889 -0.0277,23.75053 L 927.5,144.5 l -7.16497,0.29209 c -3.94073,0.16065 -7.38678,-0.0643 -7.65788,-0.5 z m -321.23602,-1.84726 c -1.83031,-1.46637 -1.7984,-1.48719 0.55887,-0.36454 3.06103,1.45781 3.62834,1.91971 2.3578,1.91971 -0.53655,0 -1.84905,-0.69982 -2.91667,-1.55517 z M 659.4562,104 c 0,-22.275 0.13167,-31.3875 0.29261,-20.25 0.16093,11.1375 0.16093,29.3625 0,40.5 -0.16094,11.1375 -0.29261,2.025 -0.29261,-20.25 z m 63.97735,15.5 c -6.1e-4,-13.75 0.14023,-19.5137 0.31298,-12.80822 0.17275,6.70549 0.17325,17.95549 10e-4,25 -0.17214,7.04452 -0.31348,1.55822 -0.31409,-12.19178 z m -399.0868,16.88465 -4.84675,-4.61535 4.5,3.75615 c 6.03645,5.03863 6.49803,5.47455 5.79675,5.47455 -0.33179,0 -2.78429,-2.07691 -5.45,-4.61535 z m 54.11425,1.44118 c 1.67145,-1.4708 4.32587,-4.1708 5.89871,-6 1.57285,-1.82921 2.39728,-2.42583 1.83208,-1.32583 -1.04873,2.04106 -6.45475,7.34246 -9.23079,9.05216 -0.84645,0.52131 -0.17145,-0.25554 1.5,-1.72633 z M 478.92431,138.25 476.5,135.5 l 2.75,2.42431 c 2.57029,2.26589 3.20859,3.07569 2.42431,3.07569 -0.17912,0 -1.41662,-1.2375 -2.75,-2.75 z m 105.4923,-0.82225 -3.91661,-3.57225 4.25,3.23961 c 3.88344,2.96021 4.83096,3.90489 3.91661,3.90489 -0.18336,0 -2.09586,-1.60751 -4.25,-3.57225 z M 707.42614,119.5 c -7.6e-4,-12.1 0.14302,-17.18744 0.31951,-11.30542 0.17649,5.88201 0.17711,15.78201 0.001,22 -0.17574,6.21798 -0.32014,1.40542 -0.32089,-10.69458 z M 797,139.5 c -0.68469,-0.825 -1.01989,-1.5 -0.74489,-1.5 0.275,0 1.0602,0.675 1.74489,1.5 0.68469,0.825 1.01989,1.5 0.74489,1.5 -0.275,0 -1.0602,-0.675 -1.74489,-1.5 z M 420,138 c 0.5887,-1.1 1.29537,-2 1.57037,-2 0.275,0 0.0183,0.9 -0.57037,2 -0.5887,1.1 -1.29537,2 -1.57037,2 -0.275,0 -0.0183,-0.9 0.57037,-2 z m 421,1.24055 c 0,-0.4177 1.0125,-1.38145 2.25,-2.14166 2.24201,-1.37729 2.24323,-1.37459 0.34501,0.75946 C 841.55693,140.14963 841,140.44627 841,139.24055 Z M 641.44488,134 c 6.56558,-7.39024 7.23948,-8.0215 4.80393,-4.5 -1.14117,1.65 -3.78831,4.575 -5.88253,6.5 -3.04191,2.79611 -2.82499,2.39389 1.0786,-2 z m 149.96011,-0.25 -1.90499,-2.25 2.25,1.90499 c 2.11444,1.79022 2.70524,2.59501 1.90499,2.59501 -0.18976,0 -1.20226,-1.0125 -2.25,-2.25 z m 55.70929,0.32063 c -0.85973,-0.53135 -0.96201,-1.0467 -0.29014,-1.46194 0.57071,-0.35272 1.33882,-0.15403 1.7069,0.44153 0.91846,1.4861 0.188,2.0122 -1.41676,1.02041 z m -406.54999,-2.36376 c 0.37553,-0.98622 0.93469,-1.54122 1.24258,-1.23333 0.30789,0.30789 6.4e-4,1.11479 -0.68278,1.79313 -0.98762,0.98026 -1.10248,0.8654 -0.5598,-0.5598 z m 65.41515,0.17709 c 1.36369,-0.54409 3.18574,-1.52807 4.04901,-2.18661 0.86326,-0.65854 0.50992,-0.18485 -0.7852,1.05265 -1.29513,1.2375 -3.11718,2.22148 -4.04901,2.18661 -1.12663,-0.0421 -0.86358,-0.39481 0.7852,-1.05265 z m 73.2987,-0.13396 c -1.49918,-1.93844 -2.44224,-3.75 -1.95217,-3.75 0.24421,0 1.18114,1.125 2.08207,2.5 1.68584,2.57291 1.59195,3.47635 -0.1299,1.25 z m 37.53436,0.56689 c 0.72187,-0.28887 1.58438,-0.25335 1.91667,0.0789 0.33229,0.33229 -0.25834,0.56864 -1.3125,0.52522 -1.16495,-0.048 -1.4019,-0.28494 -0.60417,-0.60416 z m 212,0 c 0.72187,-0.28887 1.58438,-0.25335 1.91667,0.0789 0.33229,0.33229 -0.25834,0.56864 -1.3125,0.52522 -1.16495,-0.048 -1.4019,-0.28494 -0.60417,-0.60416 z m -481.08153,-0.97283 c 0.67703,-0.27392 2.02703,-0.29059 3,-0.0371 0.97297,0.25354 0.41903,0.47766 -1.23097,0.49804 -1.65,0.0204 -2.44606,-0.18706 -1.76903,-0.46099 z m 8.01903,-0.006 c 0.6875,-0.27741 1.8125,-0.27741 2.5,0 0.6875,0.27741 0.125,0.50439 -1.25,0.50439 -1.375,0 -1.9375,-0.22698 -1.25,-0.50439 z m 264.33333,0.29773 c 0.22917,-0.2005 1.54167,-0.90032 2.91667,-1.55516 2.35727,-1.12265 2.38918,-1.10183 0.55887,0.36454 -1.593,1.27626 -4.84786,2.39128 -3.47554,1.19062 z M 812,131 c -0.90129,-0.58246 -1.02463,-0.97549 -0.30902,-0.98469 0.65504,-0.008 1.4691,0.43469 1.80902,0.98469 0.7673,1.24153 0.42112,1.24153 -1.5,0 z M 490.40499,128.75 488.5,126.5 l 2.25,1.90499 c 2.11444,1.79022 2.70524,2.59501 1.90499,2.59501 -0.18976,0 -1.20226,-1.0125 -2.25,-2.25 z m 107.45579,0.19065 -2.36078,-2.05935 2.75,1.67436 c 1.5125,0.9209 2.75,1.84761 2.75,2.05935 0,0.78084 -0.83549,0.33522 -3.13922,-1.67436 z m 238.16671,0.40322 c 1.35988,-0.91087 3.39871,-2.37337 4.53072,-3.25 1.13202,-0.87663 0.49454,-0.13137 -1.41661,1.65613 -1.91115,1.7875 -3.94997,3.25 -4.53072,3.25 -0.58074,0 0.0567,-0.74526 1.41661,-1.65613 z m -495.52041,-0.33242 c -0.35034,-0.56686 0.0511,-0.7345 0.94098,-0.39301 1.73242,0.66479 2.04939,1.38156 0.61096,1.38156 -0.51754,0 -1.21592,-0.44485 -1.55194,-0.98855 z M 808,128.5 c -0.68469,-0.825 -1.01989,-1.5 -0.74489,-1.5 0.275,0 1.0602,0.675 1.74489,1.5 0.68469,0.825 1.01989,1.5 0.74489,1.5 -0.275,0 -1.0602,-0.675 -1.74489,-1.5 z m -443,0.12244 c 0,-0.20765 0.7875,-0.99515 1.75,-1.75 1.58606,-1.24387 1.62143,-1.2085 0.37756,0.37756 C 365.82119,128.91575 365,129.44548 365,128.62244 Z M 629,125.5 c 1.86578,-1.925 3.61733,-3.5 3.89233,-3.5 0.275,0 -1.02655,1.575 -2.89233,3.5 -1.86578,1.925 -3.61733,3.5 -3.89233,3.5 -0.275,0 1.02655,-1.575 2.89233,-3.5 z M 316,126 c -0.5887,-1.1 -0.84537,-2 -0.57037,-2 0.275,0 0.98167,0.9 1.57037,2 0.5887,1.1 0.84537,2 0.57037,2 -0.275,0 -0.98167,-0.9 -1.57037,-2 z m 104.5,-2 c -0.85325,-1.65 -1.32636,-3 -1.05136,-3 0.275,0 1.19811,1.35 2.05136,3 0.85325,1.65 1.32636,3 1.05136,3 -0.275,0 -1.19811,-1.35 -2.05136,-3 z m 23.06429,1.70687 c 0.37553,-0.98622 0.93469,-1.54122 1.24258,-1.23333 0.30789,0.30789 6.4e-4,1.11479 -0.68278,1.79313 -0.98762,0.98026 -1.10248,0.8654 -0.5598,-0.5598 z m 42.99458,-1.23867 C 485.49125,123.66069 485.09865,123 485.68643,123 c 0.58777,0 1.62888,0.675 2.31357,1.5 1.5572,1.87632 1.06734,1.86551 -1.44113,-0.0318 z M 593,124.5 c -0.68469,-0.825 -1.01989,-1.5 -0.74489,-1.5 0.275,0 1.0602,0.675 1.74489,1.5 0.68469,0.825 1.01989,1.5 0.74489,1.5 -0.275,0 -1.0602,-0.675 -1.74489,-1.5 z m 52.74242,-0.41401 c -4.10964,-2.63459 -4.67905,-3.56232 -1.05583,-1.72028 1.75262,0.89104 3.46668,2.07327 3.80901,2.62718 0.80189,1.29748 0.56227,1.21855 -2.75318,-0.9069 z M 804,124.5 c -0.68469,-0.825 -1.01989,-1.5 -0.74489,-1.5 0.275,0 1.0602,0.675 1.74489,1.5 0.68469,0.825 1.01989,1.5 0.74489,1.5 -0.275,0 -1.0602,-0.675 -1.74489,-1.5 z m -433,-1.44098 c 0,-0.51754 0.44485,-1.21592 0.98855,-1.55194 0.56686,-0.35034 0.7345,0.0511 0.39301,0.94098 C 371.71677,124.18048 371,124.49745 371,123.05902 Z m 413.62354,-0.59768 c -0.34295,-0.8937 -0.59502,-2.15061 -0.56015,-2.79313 0.0349,-0.64251 0.49453,-0.0904 1.02148,1.22697 0.52695,1.31735 0.77902,2.57426 0.56015,2.79313 -0.21887,0.21887 -0.67854,-0.33327 -1.02148,-1.22697 z M 332,121.5 c -0.68469,-0.825 -1.01989,-1.5 -0.74489,-1.5 0.275,0 1.0602,0.675 1.74489,1.5 0.68469,0.825 1.01989,1.5 0.74489,1.5 -0.275,0 -1.0602,-0.675 -1.74489,-1.5 z m 113.56429,0.20687 c 0.37553,-0.98622 0.93469,-1.54122 1.24258,-1.23333 0.30789,0.30789 6.4e-4,1.11479 -0.68278,1.79313 -0.98762,0.98026 -1.10248,0.8654 -0.5598,-0.5598 z m 67.51466,-0.2902 c 0.048,-1.16495 0.28494,-1.4019 0.60416,-0.60417 0.28887,0.72187 0.25335,1.58437 -0.0789,1.91667 -0.33229,0.33229 -0.56864,-0.25834 -0.52522,-1.3125 z m -139.51466,-2.7098 c 0.37553,-0.98622 0.93469,-1.54122 1.24258,-1.23333 0.30789,0.30789 6.4e-4,1.11479 -0.68278,1.79313 -0.98762,0.98026 -1.10248,0.8654 -0.5598,-0.5598 z m 215.89459,0.2266 c -0.36253,-0.58659 -0.44468,-1.281 -0.18255,-1.54313 0.26212,-0.26213 0.74306,0.21781 1.06875,1.06653 0.67618,1.76211 0.0998,2.07206 -0.8862,0.4766 z M 448.5,116 c 0.85325,-1.65 1.77636,-3 2.05136,-3 0.275,0 -0.19811,1.35 -1.05136,3 -0.85325,1.65 -1.77636,3 -2.05136,3 -0.275,0 0.19811,-1.35 1.05136,-3 z m -32.5,0 c -0.5887,-1.1 -0.84537,-2 -0.57037,-2 0.275,0 0.98167,0.9 1.57037,2 0.5887,1.1 0.84537,2 0.57037,2 -0.275,0 -0.98167,-0.9 -1.57037,-2 z m 93.92431,-0.75 -2.42431,-2.75 2.75,2.42431 c 2.57029,2.26589 3.20859,3.07569 2.42431,3.07569 -0.17912,0 -1.41662,-1.2375 -2.75,-2.75 z m 336.16129,2.25 c 0.10413,-1.89422 1.77076,-5.08385 1.8288,-3.5 0.0302,0.825 -0.38124,2.175 -0.9144,3 -0.53316,0.825 -0.94464,1.05 -0.9144,0.5 z m -534.00665,-2.08333 c 0.048,-1.16495 0.28494,-1.4019 0.60416,-0.60417 0.28887,0.72187 0.25335,1.58437 -0.0789,1.91667 -0.33229,0.33229 -0.56864,-0.25834 -0.52522,-1.3125 z m 80,-1 c 0.048,-1.16495 0.28494,-1.4019 0.60416,-0.60417 0.28887,0.72187 0.25335,1.58437 -0.0789,1.91667 -0.33229,0.33229 -0.56864,-0.25834 -0.52522,-1.3125 z M 572.15789,114 c 0,-1.375 0.22698,-1.9375 0.50439,-1.25 0.27741,0.6875 0.27741,1.8125 0,2.5 -0.27741,0.6875 -0.50439,0.125 -0.50439,-1.25 z m 210.03706,-1.5 c 0.0204,-1.65 0.2445,-2.20394 0.49804,-1.23097 0.25354,0.97297 0.23687,2.32297 -0.0371,3 -0.27393,0.67703 -0.48137,-0.11903 -0.46099,-1.76903 z m -348.98438,0.10086 c 0.70919,-0.76953 1.44699,-1.24947 1.63957,-1.06653 C 435.44328,112.09779 433.94,114 432.90156,114 c -0.53923,0 -0.40017,-0.62961 0.30901,-1.39914 z M 311,112.09844 c 0,-1.03844 1.90221,-2.54172 2.46567,-1.94858 0.18294,0.19258 -0.297,0.93038 -1.06653,1.63957 C 311.62961,112.49861 311,112.63767 311,112.09844 Z m 65.07895,-0.68177 c 0.048,-1.16495 0.28494,-1.4019 0.60416,-0.60417 0.28887,0.72187 0.25335,1.58437 -0.0789,1.91667 -0.33229,0.33229 -0.56864,-0.25834 -0.52522,-1.3125 z M 429.5,109 c -0.85325,-1.65 -1.32636,-3 -1.05136,-3 0.275,0 1.19811,1.35 2.05136,3 0.85325,1.65 1.32636,3 1.05136,3 -0.275,0 -1.19811,-1.35 -2.05136,-3 z m 418.65789,1 c 0,-1.375 0.22698,-1.9375 0.50439,-1.25 0.27741,0.6875 0.27741,1.8125 0,2.5 -0.27741,0.6875 -0.50439,0.125 -0.50439,-1.25 z m -454.88553,-3 c 0,-2.475 0.19502,-3.4875 0.43337,-2.25 0.23836,1.2375 0.23836,3.2625 0,4.5 -0.23835,1.2375 -0.43337,0.225 -0.43337,-2.25 z M 410.5,106 c -1.39353,-2.75 -2.30869,-5 -2.03369,-5 0.275,0 1.64016,2.25 3.03369,5 1.39353,2.75 2.30869,5 2.03369,5 -0.275,0 -1.64016,-2.25 -3.03369,-5 z m 176.8362,3 0.1638,-2.5 30.19825,-0.26459 30.19824,-0.26458 0.36677,-5.23542 0.36678,-5.23541 0.18498,5.75 L 649,107 H 618.56955 588.1391 l -0.48335,2.25 c -0.42594,1.98274 -0.4639,1.95304 -0.31955,-0.25 z m -270.5237,0.31689 c 0.72187,-0.28887 1.58438,-0.25335 1.91667,0.0789 0.33229,0.3323 -0.25834,0.56864 -1.3125,0.52522 -1.16495,-0.048 -1.4019,-0.28494 -0.60417,-0.60416 z M 452,109.3578 c 0,-0.53655 0.69982,-1.84905 1.55517,-2.91667 1.46637,-1.83031 1.48719,-1.7984 0.36454,0.55887 C 452.4619,110.06103 452,110.62834 452,109.3578 Z m 72.97994,-0.88197 c -0.69572,-0.83829 -1.07128,-1.71782 -0.83459,-1.95452 0.2367,-0.23669 0.97964,0.44918 1.65098,1.52417 1.45181,2.32472 0.96763,2.57996 -0.81639,0.43035 z M 571.29966,105 c 0,-3.025 0.18747,-4.2625 0.41659,-2.75 0.22913,1.5125 0.22913,3.9875 0,5.5 -0.22912,1.5125 -0.41659,0.275 -0.41659,-2.75 z m 226.02041,-1 c 0,-3.575 0.1815,-5.0375 0.40333,-3.25 0.22182,1.7875 0.22182,4.7125 0,6.5 -0.22183,1.7875 -0.40333,0.325 -0.40333,-3.25 z M 320.75,108.33772 c 0.6875,-0.27741 1.8125,-0.27741 2.5,0 0.6875,0.27741 0.125,0.50439 -1.25,0.50439 -1.375,0 -1.9375,-0.22698 -1.25,-0.50439 z m 5.0625,-1.02083 c 0.72187,-0.28887 1.58438,-0.25335 1.91667,0.0789 0.33229,0.3323 -0.25834,0.56864 -1.3125,0.52522 -1.16495,-0.048 -1.4019,-0.28494 -0.60417,-0.60416 z m 168.62863,-0.87206 c -1.86402,-1.49339 -1.85176,-1.51185 0.30887,-0.46481 1.2375,0.59969 2.25,1.29951 2.25,1.55516 0,0.76522 -0.51861,0.54424 -2.55887,-1.09035 z M 781.15789,104 c 0,-1.375 0.22698,-1.9375 0.50439,-1.25 0.27741,0.6875 0.27741,1.8125 0,2.5 -0.27741,0.6875 -0.50439,0.125 -0.50439,-1.25 z m -261.7529,-1.25 -1.90499,-2.25 2.5,1.98934 c 1.375,1.09414 2.6875,2.10664 2.91667,2.25 0.22916,0.14336 -0.0386,0.26066 -0.59502,0.26066 -0.55642,0 -1.86892,-1.0125 -2.91666,-2.25 z m -80.8407,-0.0431 c 0.37553,-0.98622 0.93469,-1.54122 1.24258,-1.23333 0.30789,0.30789 6.4e-4,1.11479 -0.68278,1.79313 -0.98762,0.98026 -1.10248,0.8654 -0.5598,-0.5598 z m -62.48534,-0.37508 c -0.0434,-0.64252 -0.33793,-1.99252 -0.65446,-3 -0.54705,-1.74122 -0.51883,-1.7434 0.57078,-0.0441 0.63045,0.98322 0.92496,2.33322 0.65445,3 -0.35498,0.87499 -0.51379,0.88727 -0.57077,0.0441 z M 486,101.5 c -0.68469,-0.825 -1.01989,-1.5 -0.74489,-1.5 0.275,0 1.0602,0.675 1.74489,1.5 0.68469,0.825 1.01989,1.5 0.74489,1.5 -0.275,0 -1.0602,-0.675 -1.74489,-1.5 z m 28.50708,-1.48855 c -0.35034,-0.56686 0.0511,-0.7345 0.94098,-0.39301 1.73242,0.66479 2.04939,1.38156 0.61096,1.38156 -0.51754,0 -1.21592,-0.44485 -1.55194,-0.98855 z M 392.07895,98.41667 c 0.048,-1.16495 0.28494,-1.4019 0.60416,-0.60417 0.28887,0.72187 0.25335,1.58437 -0.0789,1.91667 -0.33229,0.33229 -0.56864,-0.25834 -0.52522,-1.3125 z m 49.61645,-1.90411 c 0.91468,-1.918096 1.84058,-3.309915 2.05756,-3.092933 C 444.21042,93.877088 441.17476,100 440.4905,100 c -0.25198,0 0.29023,-1.56935 1.2049,-3.48744 z M 481.40499,97.75 479.5,95.5 l 2.25,1.90499 c 2.11444,1.79022 2.70524,2.59501 1.90499,2.59501 -0.18976,0 -1.20226,-1.0125 -2.25,-2.25 z M 675.232,97 c 0,-1.925 0.2058,-2.7125 0.45733,-1.75 0.25152,0.9625 0.25152,2.5375 0,3.5 C 675.4378,99.7125 675.232,98.925 675.232,97 Z m 172.84695,1.41667 c 0.048,-1.16495 0.28494,-1.4019 0.60416,-0.60417 0.28887,0.72187 0.25335,1.58437 -0.0789,1.91667 -0.33229,0.33229 -0.56864,-0.25834 -0.52522,-1.3125 z M 421.5,94 c -1.39353,-2.75 -2.30869,-5 -2.03369,-5 0.275,0 1.64016,2.25 3.03369,5 1.39353,2.75 2.30869,5 2.03369,5 -0.275,0 -1.64016,-2.25 -3.03369,-5 z M 371.06618,92.731974 C 368.21822,89.222037 368.10592,88.926537 370.408,91 c 2.39234,2.154757 5.23238,6.03603 4.37718,5.98197 -0.15685,-0.01 -1.8304,-1.92241 -3.719,-4.249996 z M 707.25218,93.5 c -0.0111,-2.2 0.18461,-3.217747 0.4349,-2.261659 0.25029,0.956087 0.25937,2.756087 0.0202,4 C 707.46807,96.48225 707.26328,95.7 707.25218,93.5 Z m 74.82677,1.916667 c 0.048,-1.164943 0.28494,-1.4019 0.60416,-0.604167 0.28887,0.721875 0.25335,1.58437 -0.0789,1.91667 -0.33229,0.33229 -0.56864,-0.25834 -0.52522,-1.312503 z m 16,0 c 0.048,-1.164943 0.28494,-1.4019 0.60416,-0.604167 0.28887,0.721875 0.25335,1.58437 -0.0789,1.91667 -0.33229,0.33229 -0.56864,-0.25834 -0.52522,-1.312503 z M 461.5,91 c 1.39353,-2.75 2.75869,-5 3.03369,-5 0.275,0 -0.64016,2.25 -2.03369,5 -1.39353,2.75 -2.75869,5 -3.03369,5 -0.275,0 0.64016,-2.25 2.03369,-5 z m 110.65789,3 c 0,-1.375 0.22698,-1.9375 0.50439,-1.25 0.27741,0.6875 0.27741,1.8125 0,2.5 -0.27741,0.6875 -0.50439,0.125 -0.50439,-1.25 z m 15.92106,-0.583333 c 0.048,-1.164943 0.28494,-1.4019 0.60416,-0.604167 0.28887,0.721875 0.25335,1.584375 -0.0789,1.916667 -0.33229,0.332291 -0.56864,-0.258334 -0.52522,-1.3125 z M 632.15789,93 c 0,-1.375 0.22698,-1.9375 0.50439,-1.25 0.27741,0.6875 0.27741,1.8125 0,2.5 -0.27741,0.6875 -0.50439,0.125 -0.50439,-1.25 z m 296,0 c 0,-1.375 0.22698,-1.9375 0.50439,-1.25 0.27741,0.6875 0.27741,1.8125 0,2.5 -0.27741,0.6875 -0.50439,0.125 -0.50439,-1.25 z m -281,-1 c 0,-1.375 0.22698,-1.9375 0.50439,-1.25 0.27741,0.6875 0.27741,1.8125 0,2.5 -0.27741,0.6875 -0.50439,0.125 -0.50439,-1.25 z m 76.92106,-0.583333 c 0.048,-1.164943 0.28494,-1.4019 0.60416,-0.604167 0.28887,0.721875 0.25335,1.584375 -0.0789,1.916667 -0.33229,0.332291 -0.56864,-0.258334 -0.52522,-1.3125 z M 389.56429,90.293128 c -0.54268,-1.425198 -0.42782,-1.540062 0.5598,-0.559795 0.68342,0.678334 0.99067,1.485241 0.68278,1.793128 -0.30789,0.307888 -0.86705,-0.247112 -1.24258,-1.233333 z m 104.5393,-1.827924 c -1.70697,-1.944138 -3.07507,-4.306638 -3.0402,-5.25 0.0427,-1.156457 0.38717,-0.900801 1.05734,0.784796 0.54667,1.375 2.17734,3.7375 3.6237,5.25 1.44637,1.5125 2.36718,2.75 2.04625,2.75 -0.32092,0 -1.98011,-1.590658 -3.68709,-3.534796 z m 181.91172,1.951463 C 676.02373,89.3625 676.4874,87.825 677.04569,87 c 0.74131,-1.095458 0.83408,-0.690916 0.34401,1.5 -0.82247,3.676928 -1.39483,4.475114 -1.37439,1.916667 z M 755.15789,90 c 0,-1.375 0.22698,-1.9375 0.50439,-1.25 0.27741,0.6875 0.27741,1.8125 0,2.5 -0.27741,0.6875 -0.50439,0.125 -0.50439,-1.25 z m 16,0 c 0,-1.375 0.22698,-1.9375 0.50439,-1.25 0.27741,0.6875 0.27741,1.8125 0,2.5 -0.27741,0.6875 -0.50439,0.125 -0.50439,-1.25 z m 11.92771,1 c -0.0302,-0.825 0.38124,-2.175 0.9144,-3 1.18132,-1.827966 1.18132,-0.249085 0,2.5 -0.56668,1.31874 -0.87815,1.489055 -0.9144,0.5 z M 846,91.306214 c 0,-0.564916 -1.17956,-2.765295 -2.62124,-4.889731 -1.44168,-2.124435 -1.86201,-3.232506 -0.93406,-2.462379 2.10332,1.745602 4.90073,7.033799 4.12904,7.805493 C 846.25818,92.075152 846,91.871129 846,91.306214 Z M 401,89 c -0.5887,-1.1 -0.84537,-2 -0.57037,-2 0.275,0 0.98167,0.9 1.57037,2 0.5887,1.1 0.84537,2 0.57037,2 -0.275,0 -0.98167,-0.9 -1.57037,-2 z m 399.00374,1.400038 c -0.005,-1.401439 5.43981,-8.954953 7.18021,-9.96145 0.72383,-0.418599 0.3508,0.323974 -0.82896,1.650162 -1.17975,1.326187 -3.09057,3.98625 -4.24626,5.91125 -1.15569,1.925 -2.10294,3.005017 -2.10499,2.400038 z M 477.30987,84.5 c 0.006,-3.3 0.1923,-4.529441 0.41486,-2.732091 0.22256,1.79735 0.21797,4.49735 -0.0102,6 C 477.48635,89.270559 477.30426,87.8 477.30987,84.5 Z M 929.0856,89 c -0.0302,-0.825 0.38124,-2.175 0.9144,-3 1.18132,-1.827966 1.18132,-0.249085 0,2.5 -0.56668,1.31874 -0.87815,1.489055 -0.9144,0.5 z M 385.99691,84.75 c -1.47225,-2.011104 -1.71373,-2.709553 -0.63346,-1.832244 1.63978,1.3317 4.1192,5.082244 3.35979,5.082244 -0.19092,0 -1.41777,-1.4625 -2.72633,-3.25 z M 361,85.5 c -1.375,-0.786021 -2.02351,-1.445075 -1.44113,-1.464565 0.58238,-0.01949 1.93238,0.625253 3,1.432762 2.46898,1.86744 1.68038,1.883528 -1.55887,0.0318 z m 267.51128,-1.123124 c -0.9453,-1.442718 -1.22448,-2.317655 -0.62038,-1.944306 1.15439,0.713455 3.48267,4.56743 2.75929,4.56743 -0.23109,0 -1.1936,-1.180406 -2.13891,-2.623124 z M 592.23207,84 c 0.68696,-1.1 1.66052,-2 2.16346,-2 0.50295,0 0.1,0.9 -0.89553,2 -0.99549,1.1 -1.96904,2 -2.16346,2 -0.19442,0 0.20857,-0.9 0.89553,-2 z m 52.39147,0.461341 c -0.96498,-2.514694 -0.68031,-3.163555 0.49853,-1.136338 0.58369,1.003751 0.8506,2.035659 0.59313,2.293128 -0.25747,0.257469 -0.74872,-0.263087 -1.09166,-1.15679 z m 108.82741,-0.615883 c -0.40241,-1.267894 -2.131,-3.651408 -3.84131,-5.296698 -2.50544,-2.410206 -2.6239,-2.683214 -0.60964,-1.405099 2.63284,1.670627 6.6117,7.577968 5.71087,8.478804 -0.29054,0.290541 -0.85751,-0.509112 -1.25992,-1.777007 z M 465,84.059017 c 0,-0.517541 0.44485,-1.215913 0.98855,-1.551938 0.56686,-0.350339 0.7345,0.05106 0.39301,0.940983 C 465.71677,85.180479 465,85.497449 465,84.059017 Z m 213,0 c 0,-0.517541 0.44485,-1.215913 0.98855,-1.551938 0.56686,-0.350339 0.7345,0.05106 0.39301,0.940983 C 678.71677,85.180479 678,85.497449 678,84.059017 Z M 727,83 c 0.5887,-1.1 1.29537,-2 1.57037,-2 0.275,0 0.0183,0.9 -0.57037,2 -0.5887,1.1 -1.29537,2 -1.57037,2 -0.275,0 -0.0183,-0.9 0.57037,-2 z m 206,-1.5 c 1.29175,-1.375 2.57363,-2.5 2.84863,-2.5 0.275,0 -0.55688,1.125 -1.84863,2.5 -1.29175,1.375 -2.57363,2.5 -2.84863,2.5 -0.275,0 0.55688,-1.125 1.84863,-2.5 z M 396,80 c -0.5887,-1.1 -0.84537,-2 -0.57037,-2 0.275,0 0.98167,0.9 1.57037,2 0.5887,1.1 0.84537,2 0.57037,2 -0.275,0 -0.98167,-0.9 -1.57037,-2 z m 17.5,-1 c -0.85325,-1.65 -1.32636,-3 -1.05136,-3 0.275,0 1.19811,1.35 2.05136,3 0.85325,1.65 1.32636,3 1.05136,3 -0.275,0 -1.19811,-1.35 -2.05136,-3 z m 94.42431,0.25 -2.42431,-2.75 2.75,2.424314 C 510.82029,81.190201 511.45859,82 510.67431,82 c -0.17912,0 -1.41662,-1.2375 -2.75,-2.75 z M 512,81.580315 c 0,-0.300643 2.20792,-1.66546 4.90649,-3.032928 2.69856,-1.367468 5.17356,-3.062548 5.5,-3.766846 C 522.79311,73.946387 522.89011,74.022889 522.68477,75 522.39222,76.39207 512,82.792215 512,81.580315 Z M 701.23422,78.970687 C 699.43805,77.336809 698.34136,76 698.79713,76 c 0.45578,0 2.12207,1.35 3.70287,3 3.67538,3.836272 2.96573,3.819837 -1.26578,-0.02931 z M 838,80.5 c -0.68469,-0.825 -1.01989,-1.5 -0.74489,-1.5 0.275,0 1.0602,0.675 1.74489,1.5 0.68469,0.825 1.01989,1.5 0.74489,1.5 -0.275,0 -1.0602,-0.675 -1.74489,-1.5 z M 467,80.059017 c 0,-0.517541 0.44485,-1.215913 0.98855,-1.551938 0.56686,-0.350339 0.7345,0.05106 0.39301,0.940983 C 467.71677,81.180479 467,81.497449 467,80.059017 Z m 25,0.262637 c 0,-0.556423 1.0125,-1.868923 2.25,-2.916666 L 496.5,75.5 494.51066,78 c -1.09414,1.375 -2.10664,2.6875 -2.25,2.916667 C 492.1173,81.145833 492,80.878078 492,80.321654 Z m 103.08333,0.395378 C 595.3125,80.5614 596.4,79.7739 597.5,78.967032 c 1.85001,-1.357009 1.89707,-1.335787 0.62756,0.282968 -0.75485,0.9625 -1.84235,1.75 -2.41667,1.75 -0.57432,0 -0.85672,-0.127335 -0.62756,-0.282968 z M 624,79.5 c -0.68469,-0.825 -1.01989,-1.5 -0.74489,-1.5 0.275,0 1.0602,0.675 1.74489,1.5 0.68469,0.825 1.01989,1.5 0.74489,1.5 -0.275,0 -1.0602,-0.675 -1.74489,-1.5 z m 163.77978,-0.02587 c 0.57788,-1.11423 2.91418,-4.03923 5.19178,-6.5 4.04344,-4.368621 4.03055,-4.332639 -0.54693,1.525872 -5.59889,7.165765 -6.00964,7.605633 -4.64485,4.974128 z M 346,79 c -0.825,-0.533156 -1.05,-0.969374 -0.5,-0.969374 0.55,0 1.675,0.436218 2.5,0.969374 0.825,0.533156 1.05,0.969374 0.5,0.969374 -0.55,0 -1.675,-0.436218 -2.5,-0.969374 z m 209.89211,-0.2969 c 0.44093,-0.438295 4.13308,-0.659146 8.20479,-0.490781 l 7.4031,0.306118 -8.20479,0.490782 c -4.51264,0.269929 -7.84403,0.132176 -7.4031,-0.306119 z m 212.73143,-0.241759 c -0.96498,-2.514694 -0.68031,-3.163555 0.49853,-1.136338 0.58369,1.003751 0.8506,2.035659 0.59313,2.293128 -0.25747,0.257469 -0.74872,-0.263087 -1.09166,-1.15679 z M 953,78.395495 c -1.66836,-1.02346 -1.83469,-1.304707 -0.5,-0.845455 1.1,0.378498 2.54271,0.70958 3.20601,0.735736 0.66331,0.02616 0.97425,0.422557 0.69098,0.880891 -0.63071,1.02051 -0.38566,1.076139 -3.39699,-0.771172 z m -575.5,-1.983105 -3,-2.577676 3.25,2.150737 c 1.7875,1.182906 3.25,2.345095 3.25,2.582643 0,0.748551 -0.42347,0.487731 -3.5,-2.155704 z M 832,77.414894 c -3.2755,-1.341036 -3.30757,-1.395761 -0.5,-0.853159 1.65,0.318885 3.4275,0.997947 3.95,1.509028 1.19761,1.17144 0.85339,1.106 -3.45,-0.655869 z m 105.73333,0.461018 c 0.67834,-0.683418 1.48524,-0.990671 1.79313,-0.682784 0.30789,0.307887 -0.24711,0.867048 -1.23333,1.242579 -1.4252,0.542685 -1.54006,0.427821 -0.5598,-0.559795 z M 579.72041,75.5 c 2.22936,-3.240764 6.14008,-7.076574 6.53572,-6.410536 0.13413,0.225795 -1.74588,2.435536 -4.17779,4.910536 -3.03688,3.090681 -3.77534,3.560454 -2.35793,1.5 z m 105.01292,1.375912 c 0.67834,-0.683418 1.48524,-0.990671 1.79313,-0.682784 0.30789,0.307887 -0.24711,0.867048 -1.23333,1.242579 -1.4252,0.542685 -1.54006,0.427821 -0.5598,-0.559795 z M 813,77 c 0.825,-0.533156 2.175,-0.944637 3,-0.914402 0.98906,0.03625 0.81874,0.34772 -0.5,0.914402 -2.74909,1.181322 -4.32797,1.181322 -2.5,0 z m 130.26375,-0.717581 c 1.52006,-0.229855 3.77006,-0.223712 5,0.01365 1.22994,0.237362 -0.0137,0.425424 -2.76375,0.417917 -2.75,-0.0075 -3.75631,-0.201713 -2.23625,-0.431567 z M 957,76.357796 c 0,-0.536545 0.69982,-1.849045 1.55517,-2.916666 1.46637,-1.830306 1.48719,-1.798398 0.36454,0.55887 C 957.4619,77.061032 957,77.628339 957,76.357796 Z M 498.25,75.310674 c 0.9625,-0.251527 2.5375,-0.251527 3.5,0 0.9625,0.251528 0.175,0.457323 -1.75,0.457323 -1.925,0 -2.7125,-0.205795 -1.75,-0.457323 z M 571.30987,70.5 c 0.006,-3.3 0.1923,-4.529441 0.41486,-2.732091 0.22256,1.79735 0.21797,4.49735 -0.0102,6 C 571.48635,75.270559 571.30426,73.8 571.30987,70.5 Z m 34.50263,4.816886 c 0.72187,-0.288871 1.58438,-0.253344 1.91667,0.07895 0.33229,0.332292 -0.25834,0.568641 -1.3125,0.52522 -1.16495,-0.04798 -1.4019,-0.284941 -0.60417,-0.604167 z m 8.9375,0.02083 c 0.6875,-0.277412 1.8125,-0.277412 2.5,0 0.6875,0.277413 0.125,0.504386 -1.25,0.504386 -1.375,0 -1.9375,-0.226973 -1.25,-0.504386 z m 76,-0.04345 c 1.2375,-0.238353 3.2625,-0.238353 4.5,0 1.2375,0.238353 0.225,0.433369 -2.25,0.433369 -2.475,0 -3.4875,-0.195016 -2.25,-0.433369 z m 48,0 c 1.2375,-0.238353 3.2625,-0.238353 4.5,0 1.2375,0.238353 0.225,0.433369 -2.25,0.433369 -2.475,0 -3.4875,-0.195016 -2.25,-0.433369 z m 81.5,-0.01052 c 1.5125,-0.229125 3.9875,-0.229125 5.5,0 1.5125,0.229124 0.275,0.41659 -2.75,0.41659 -3.025,0 -4.2625,-0.187466 -2.75,-0.41659 z M 848.25218,72.5 c -0.0111,-2.2 0.18461,-3.217747 0.4349,-2.261659 0.25029,0.956087 0.25937,2.756087 0.0202,4 -0.23921,1.243912 -0.444,0.461659 -0.4551,-1.738341 z m 78.9328,-2.75 0.18498,-6.25 0.36995,5.326861 c 0.33031,4.756152 0.54197,5.184704 1.97567,4 1.45262,-1.200345 1.47213,-1.112324 0.20453,0.923139 -2.26072,3.630179 -2.93191,2.648595 -2.73513,-4 z m -208.78047,4.095492 c -0.45526,-0.736624 -0.27283,-0.882146 0.50399,-0.402039 0.68575,0.423812 2.17274,-0.05467 3.40451,-1.095492 L 724.5,70.5 l -1.90499,2.25 c -2.13611,2.522978 -3.14522,2.786785 -4.1905,1.095492 z M 767,74.140351 c 0,-0.65614 -2.12039,-3.31864 -4.71197,-5.916667 -2.59158,-2.598026 -3.6153,-4.001246 -2.27493,-3.118266 3.23473,2.130904 8.5059,8.708915 7.6581,9.556713 C 767.30204,75.031292 767,74.796491 767,74.140351 Z M 453.56429,72.706872 c 0.37553,-0.986221 0.93469,-1.541221 1.24258,-1.233333 0.30789,0.307887 6.4e-4,1.114794 -0.68278,1.793128 -0.98762,0.980267 -1.10248,0.865403 -0.5598,-0.559795 z M 636.92431,71.25 634.5,68.5 l 2.75,2.424314 c 1.5125,1.333373 2.75,2.570873 2.75,2.75 0,0.784274 -0.8098,0.145975 -3.07569,-2.424314 z M 390.5,70 c -0.85325,-1.65 -1.32636,-3 -1.05136,-3 0.275,0 1.19811,1.35 2.05136,3 0.85325,1.65 1.32636,3 1.05136,3 -0.275,0 -1.19811,-1.35 -2.05136,-3 z m 89.5,2.622445 c 0,-0.207656 0.7875,-0.995156 1.75,-1.75 1.58606,-1.243871 1.62143,-1.208501 0.37756,0.377555 C 480.82119,72.915748 480,73.445479 480,72.622445 Z M 520,71.5 c -0.68469,-0.825 -1.01989,-1.5 -0.74489,-1.5 0.275,0 1.0602,0.675 1.74489,1.5 0.68469,0.825 1.01989,1.5 0.74489,1.5 -0.275,0 -1.0602,-0.675 -1.74489,-1.5 z m 155,1.106989 c 0,-0.216156 0.69837,-0.661002 1.55194,-0.988546 0.88992,-0.341496 1.29132,-0.173849 0.94098,0.393011 C 676.90566,72.961658 675,73.416902 675,72.606989 Z M 842.40499,70.75 840.5,68.5 l 2.25,1.904988 c 1.2375,1.047743 2.25,2.060243 2.25,2.25 0,0.800253 -0.80479,0.209457 -2.59501,-1.904988 z m -127.9679,-2 -2.93709,-3.25 3.25,2.937091 c 1.7875,1.6154 3.25,3.0779 3.25,3.25 0,0.772561 -0.82513,0.09236 -3.56291,-2.937091 z M 329,69.5 c -0.68469,-0.825 -1.01989,-1.5 -0.74489,-1.5 0.275,0 1.0602,0.675 1.74489,1.5 0.68469,0.825 1.01989,1.5 0.74489,1.5 -0.275,0 -1.0602,-0.675 -1.74489,-1.5 z m 78.45194,-1.59293 c -0.87968,-1.701112 -1.42188,-3.270461 -1.2049,-3.487443 0.21698,-0.216982 1.14288,1.174837 2.05756,3.09293 2.05658,4.312699 1.34401,4.642396 -0.85266,0.394513 z m 65.11235,1.799802 c 0.37553,-0.986221 0.93469,-1.541221 1.24258,-1.233333 0.30789,0.307887 6.4e-4,1.114794 -0.68278,1.793128 -0.98762,0.980267 -1.10248,0.865403 -0.5598,-0.559795 z M 931,70.874182 c 0,-0.275 1.35,-1.793382 3,-3.374182 1.65,-1.5808 3,-2.649182 3,-2.374182 0,0.275 -1.35,1.793382 -3,3.374182 -1.65,1.5808 -3,2.649182 -3,2.374182 z m 29,-0.815165 c 0,-0.517541 0.44485,-1.215913 0.98855,-1.551938 0.56686,-0.350339 0.7345,0.05106 0.39301,0.940983 C 960.71677,71.180479 960,71.497449 960,70.059017 Z M 630.5,66.932166 c -1.65,-1.0569 -2.48735,-1.924006 -1.86078,-1.926901 0.62656,-0.0029 2.20156,0.879764 3.5,1.961466 2.97306,2.476813 2.25793,2.461734 -1.63922,-0.03457 z m 95.5,1.690279 c 0,-0.207656 0.7875,-0.995156 1.75,-1.75 1.58606,-1.243871 1.62143,-1.208501 0.37756,0.377555 C 726.82119,68.915748 726,69.445479 726,68.622445 Z m -241,-1 c 0,-0.207656 0.7875,-0.995156 1.75,-1.75 1.58606,-1.243871 1.62143,-1.208501 0.37756,0.377555 C 485.82119,67.915748 485,68.445479 485,67.622445 Z m 29.981,-1.145337 c -1.05678,-1.273347 -0.99492,-1.419678 0.37756,-0.893011 0.90279,0.346434 1.64144,1.031736 1.64144,1.522892 0,1.285959 -0.57887,1.105364 -2.019,-0.629881 z m 166.45157,0.631996 C 682.14603,65.954709 686,63.626427 686,64.349806 c 0,0.231096 -1.18041,1.193606 -2.62312,2.138911 -1.44272,0.945305 -2.31766,1.224479 -1.94431,0.620387 z m -90.69924,-1.233192 c 0.67834,-0.683418 1.48524,-0.990671 1.79313,-0.682784 0.30789,0.307887 -0.24711,0.867048 -1.23333,1.242579 -1.4252,0.542685 -1.54006,0.427821 -0.5598,-0.559795 z m 211,0 c 0.67834,-0.683418 1.48524,-0.990671 1.79313,-0.682784 0.30789,0.307887 -0.24711,0.867048 -1.23333,1.242579 -1.4252,0.542685 -1.54006,0.427821 -0.5598,-0.559795 z m 159.83096,-0.582784 c -0.54268,-1.425198 -0.42782,-1.540062 0.5598,-0.559795 0.68342,0.678334 0.99067,1.485241 0.68278,1.793128 -0.30789,0.307888 -0.86705,-0.247112 -1.24258,-1.233333 z M 322.78349,63.25 c -2.21776,-2.542489 -4.03735,-6.329471 -3.36451,-7.002313 C 319.73854,55.928126 320,56.128871 320,56.693786 c 0,0.564916 1.11144,2.664916 2.46986,4.666667 2.65036,3.905524 2.78625,4.724214 0.31363,1.889547 z M 346.75,62.428025 c -3.87722,-2.103424 -3.43809,-2.829327 0.5,-0.826529 3.76952,1.917072 4.43665,2.413936 3.16667,2.358466 C 349.9125,63.937942 348.2625,63.24857 346.75,62.428025 Z M 539.99683,48.202888 540.49365,32.5 l 0.2809,14.92228 c 0.15449,8.207254 -0.0691,15.273554 -0.49683,15.702889 -0.42775,0.429334 -0.55415,-6.285692 -0.28089,-14.922281 z M 493.8125,62.316886 c 0.72187,-0.288871 1.58438,-0.253344 1.91667,0.07895 0.33229,0.332292 -0.25834,0.568641 -1.3125,0.52522 -1.16495,-0.04798 -1.4019,-0.284941 -0.60417,-0.604167 z m 107,0 c 0.72187,-0.288871 1.58438,-0.253344 1.91667,0.07895 0.33229,0.332292 -0.25834,0.568641 -1.3125,0.52522 -1.16495,-0.04798 -1.4019,-0.284941 -0.60417,-0.604167 z m 19,0 c 0.72187,-0.288871 1.58438,-0.253344 1.91667,0.07895 0.33229,0.332292 -0.25834,0.568641 -1.3125,0.52522 -1.16495,-0.04798 -1.4019,-0.284941 -0.60417,-0.604167 z m 70,0 c 0.72187,-0.288871 1.58438,-0.253344 1.91667,0.07895 0.33229,0.332292 -0.25834,0.568641 -1.3125,0.52522 -1.16495,-0.04798 -1.4019,-0.284941 -0.60417,-0.604167 z m 13,0 c 0.72187,-0.288871 1.58438,-0.253344 1.91667,0.07895 0.33229,0.332292 -0.25834,0.568641 -1.3125,0.52522 -1.16495,-0.04798 -1.4019,-0.284941 -0.60417,-0.604167 z m 34,0 c 0.72187,-0.288871 1.58438,-0.253344 1.91667,0.07895 0.33229,0.332292 -0.25834,0.568641 -1.3125,0.52522 -1.16495,-0.04798 -1.4019,-0.284941 -0.60417,-0.604167 z m 14.9375,0.02083 c 0.6875,-0.277412 1.8125,-0.277412 2.5,0 0.6875,0.277413 0.125,0.504386 -1.25,0.504386 -1.375,0 -1.9375,-0.226973 -1.25,-0.504386 z m 59,0 c 0.6875,-0.277412 1.8125,-0.277412 2.5,0 0.6875,0.277413 0.125,0.504386 -1.25,0.504386 -1.375,0 -1.9375,-0.226973 -1.25,-0.504386 z m 132.0625,-0.02083 c 0.72187,-0.288871 1.58438,-0.253344 1.91667,0.07895 0.33229,0.332292 -0.25834,0.568641 -1.3125,0.52522 -1.16495,-0.04798 -1.4019,-0.284941 -0.60417,-0.604167 z M 498.76166,61.292739 c 1.24391,-0.239193 3.04391,-0.230112 4,0.02018 0.95609,0.250292 -0.0617,0.445996 -2.26166,0.434897 -2.2,-0.0111 -2.98225,-0.215885 -1.73834,-0.455077 z m 109.48834,-0.009 c 1.5125,-0.229125 3.9875,-0.229125 5.5,0 1.5125,0.229124 0.275,0.41659 -2.75,0.41659 -3.025,0 -4.2625,-0.187466 -2.75,-0.41659 z m 87.51166,0.009 c 1.24391,-0.239193 3.04391,-0.230112 4,0.02018 0.95609,0.250292 -0.0617,0.445996 -2.26166,0.434897 -2.2,-0.0111 -2.98225,-0.215885 -1.73834,-0.455077 z m 47.50209,-0.01032 c 1.52006,-0.229855 3.77006,-0.223712 5,0.01365 1.22994,0.237362 -0.0137,0.425424 -2.76375,0.417917 -2.75,-0.0075 -3.75631,-0.201713 -2.23625,-0.431567 z m 74,0 c 1.52006,-0.229855 3.77006,-0.223712 5,0.01365 1.22994,0.237362 -0.0137,0.425424 -2.76375,0.417917 -2.75,-0.0075 -3.75631,-0.201713 -2.23625,-0.431567 z m 130.49791,0.01032 c 1.24391,-0.239193 3.04391,-0.230112 4,0.02018 0.95609,0.250292 -0.0617,0.445996 -2.26166,0.434897 -2.2,-0.0111 -2.98225,-0.215885 -1.73834,-0.455077 z M 338,56.5 c -0.68469,-0.825 -1.01989,-1.5 -0.74489,-1.5 0.275,0 1.0602,0.675 1.74489,1.5 0.68469,0.825 1.01989,1.5 0.74489,1.5 -0.275,0 -1.0602,-0.675 -1.74489,-1.5 z m -20.69013,-11 c 0.006,-3.3 0.1923,-4.529441 0.41486,-2.732091 0.22256,1.79735 0.21797,4.49735 -0.0102,6 C 317.48635,50.270559 317.30426,48.8 317.30987,45.5 Z m 15.76908,-0.08333 c 0.048,-1.164943 0.28494,-1.4019 0.60416,-0.604167 0.28887,0.721875 0.25335,1.584375 -0.0789,1.916667 -0.33229,0.332291 -0.56864,-0.258334 -0.52522,-1.3125 z m -15,-8 c 0.048,-1.164943 0.28494,-1.4019 0.60416,-0.604167 0.28887,0.721875 0.25335,1.584375 -0.0789,1.916667 -0.33229,0.332291 -0.56864,-0.258334 -0.52522,-1.3125 z m 53.98723,-2.684693 C 369.21822,31.222037 369.10592,30.926537 371.408,33 c 2.39234,2.154757 5.23238,6.036029 4.37718,5.981974 -0.15685,-0.0099 -1.8304,-1.922414 -3.719,-4.25 z M 377,38.606989 c 0,-0.216156 0.69837,-0.661002 1.55194,-0.988546 0.88992,-0.341496 1.29132,-0.173849 0.94098,0.393011 C 378.90566,38.961658 377,39.416902 377,38.606989 Z M 880.75675,35.75 c -1.29512,-1.2375 -1.51742,-1.592601 -0.49399,-0.789113 1.02343,0.803487 3.97048,1.755861 6.54901,2.116387 l 4.68823,0.6555 -4.19424,0.133613 c -3.10763,0.099 -4.80429,-0.449298 -6.54901,-2.116387 z M 336,36.622445 c 0,-0.207656 0.7875,-0.995156 1.75,-1.75 1.58606,-1.243871 1.62143,-1.208501 0.37756,0.377555 C 336.82119,36.915748 336,37.445479 336,36.622445 Z m 45,-0.05208 c 0,-0.275 0.9,-0.981666 2,-1.570368 1.1,-0.588702 2,-0.845368 2,-0.570368 0,0.275 -0.9,0.981666 -2,1.570368 -1.1,0.588702 -2,0.845368 -2,0.570368 z m 5.78986,-7.352933 -1.71014,-3.717435 1.96014,2.360784 c 1.07808,1.298431 1.96014,2.985931 1.96014,3.75 0,2.05693 -0.32455,1.705481 -2.21014,-2.393349 z M 896.8245,30.32582 c 0.42673,-2.092959 0.67819,-2.344421 0.96961,-0.969603 0.2164,1.020921 -0.0429,2.292541 -0.57615,2.825822 -0.62614,0.626137 -0.76551,-0.0314 -0.39346,-1.856219 z M 365,29.5 c -1.375,-0.786021 -2.02351,-1.445075 -1.44113,-1.464565 0.58238,-0.01949 1.93238,0.625253 3,1.432762 2.46898,1.86744 1.68038,1.883528 -1.55887,0.0318 z M 876.15789,27 c 0,-1.375 0.22698,-1.9375 0.50439,-1.25 0.27741,0.6875 0.27741,1.8125 0,2.5 -0.27741,0.6875 -0.50439,0.125 -0.50439,-1.25 z M 351.8125,27.316886 c 0.72187,-0.288871 1.58438,-0.253344 1.91667,0.07895 0.33229,0.332292 -0.25834,0.568641 -1.3125,0.52522 -1.16495,-0.04798 -1.4019,-0.284941 -0.60417,-0.604167 z m 3.91847,0.02718 c 0.67703,-0.273923 2.02703,-0.290597 3,-0.03705 0.97297,0.253544 0.41903,0.477663 -1.23097,0.498042 -1.65,0.02038 -2.44606,-0.187065 -1.76903,-0.460988 z M 326,23.5 c 1.86578,-1.925 3.61733,-3.5 3.89233,-3.5 0.275,0 -1.02655,1.575 -2.89233,3.5 -1.86578,1.925 -3.61733,3.5 -3.89233,3.5 -0.275,0 1.02655,-1.575 2.89233,-3.5 z m 551,-0.142204 c 0,-0.536545 0.69982,-1.849045 1.55517,-2.916666 1.46637,-1.830306 1.48719,-1.798398 0.36454,0.55887 C 877.4619,24.061032 877,24.628339 877,23.357796 Z m 15.55887,-4.889599 C 891.49125,17.660688 891.09865,17 891.68643,17 c 0.58777,0 1.62888,0.675 2.31357,1.5 1.5572,1.876316 1.06734,1.865506 -1.44113,-0.0318 z M 373,16.5 c -1.375,-0.786021 -2.02351,-1.445075 -1.44113,-1.464565 0.58238,-0.01949 1.93238,0.625253 3,1.432762 2.46898,1.86744 1.68038,1.883528 -1.55887,0.0318 z m 512.25,-0.189326 c 0.9625,-0.251527 2.5375,-0.251527 3.5,0 0.9625,0.251528 0.175,0.457323 -1.75,0.457323 -1.925,0 -2.7125,-0.205795 -1.75,-0.457323 z M 366.5,14 c -1.31874,-0.566682 -1.48906,-0.878155 -0.5,-0.914402 0.825,-0.03024 2.175,0.381246 3,0.914402 1.82797,1.181322 0.24909,1.181322 -2.5,0 z m -22.6875,-0.683114 c 0.72187,-0.288871 1.58438,-0.253344 1.91667,0.07895 0.33229,0.332292 -0.25834,0.568641 -1.3125,0.52522 -1.16495,-0.04798 -1.4019,-0.284941 -0.60417,-0.604167 z m 4.4375,-1.006212 c 0.9625,-0.251527 2.5375,-0.251527 3.5,0 0.9625,0.251528 0.175,0.457323 -1.75,0.457323 -1.925,0 -2.7125,-0.205795 -1.75,-0.457323 z m 11,0 c 0.9625,-0.251527 2.5375,-0.251527 3.5,0 0.9625,0.251528 0.175,0.457323 -1.75,0.457323 -1.925,0 -2.7125,-0.205795 -1.75,-0.457323 z"
       id="path56"
       inkscape:connector-curvature="0" />
    <path
       style="fill:#121314"
       d="m 394,189.31236 c 0,-0.57906 8.19905,-16.25416 25.79342,-49.31236 1.90271,-3.575 3.86335,-7.00911 4.35699,-7.63135 0.91287,-1.15068 -0.76634,-4.70106 -10.81614,-22.86865 -7.27483,-13.15111 -20.20475,-36.341579 -22.99908,-41.25 l -2.4195,-4.25 8.79216,0.0082 8.79215,0.0082 2.32162,4.241752 c 1.27689,2.332963 7.30161,13.579251 13.38828,24.991751 6.08666,11.412497 11.39892,20.749997 11.80502,20.749997 0.4061,0 6.30319,-11.25 13.10465,-24.999997 l 12.36629,-25 h 8.25707 C 471.28432,64 475,64.279837 475,64.62186 c 0,0.342022 -3.31711,6.979522 -7.37135,14.75 -4.05424,7.770477 -12.23682,23.57814 -18.18351,35.12814 -5.94669,11.55 -14.12385,27.3 -18.17147,35 -4.04762,7.7 -10.36982,19.9625 -14.04933,27.25 L 410.53432,190 h -8.26716 C 397.72022,190 394,189.69056 394,189.31236 Z m -47.5,-43.01089 c -9.4927,-1.26212 -20.4452,-7.41923 -25.8594,-14.53726 -3.48089,-4.5763 -7.28059,-12.58272 -8.06085,-16.98515 -0.72636,-4.09835 -1.48337,-3.58172 8.42025,-5.74652 6.26047,-1.36847 7,-1.28508 7,0.78932 0,3.88575 3.21473,10.95753 6.53515,14.37607 4.62532,4.762 9.73235,7.08284 16.74934,7.61158 14.23313,1.07247 24.83642,-9.03904 25.49182,-24.30951 0.25051,-5.8367 -0.0822,-7.65957 -2.00231,-10.96891 -2.86152,-4.931972 -10.09141,-10.486173 -17.57641,-13.50267 -14.09274,-5.679455 -25.88438,-12.00649 -30.09721,-16.149255 -11.70026,-11.505666 -12.36479,-29.69533 -1.52531,-41.751436 12.93071,-14.382067 37.22249,-16.664883 53.55784,-5.03309 3.26035,2.321578 8.87481,9.489514 8.85522,11.305399 -0.007,0.604979 -2.63723,2.541719 -5.84602,4.303866 l -5.83415,3.203905 -2.19206,-2.964915 c -1.20563,-1.630702 -4.03688,-4.185759 -6.29166,-5.677903 -3.55253,-2.350955 -5.11543,-2.714197 -11.71192,-2.722043 -5.92126,-0.007 -8.5285,0.477272 -11.73653,2.180149 -7.8024,4.141654 -12.3532,12.382062 -10.46807,18.955156 2.16802,7.559414 7.78772,11.922737 22.7424,17.657958 17.13711,6.572194 24.7991,11.58929 30.31613,19.851105 12.76868,19.121244 4.30326,47.286014 -17.05193,56.732434 -2.4345,1.0769 -7.34865,2.4321 -10.92034,3.01157 -6.57505,1.06672 -7.13096,1.08319 -12.49398,0.37015 z m 149,-0.29899 c -9.07461,-1.89672 -14.85483,-5.55934 -19.24638,-12.19542 -2.57197,-3.8865 -2.60057,-4.08019 -0.79733,-5.39876 1.02869,-0.75219 3.86822,-2.13062 6.31006,-3.06317 l 4.43971,-1.69554 3.14697,3.5903 c 4.09227,4.66878 6.4504,5.76011 12.44637,5.76011 6.1225,0 9.73887,-2.57153 11.1888,-7.95616 1.9425,-7.21392 0.17236,-9.29823 -14.4882,-17.05956 -11.69186,-6.18969 -16.99156,-10.10039 -19.0301,-14.04249 -1.84777,-3.573189 -1.91186,-13.948278 -0.11276,-18.254129 1.62325,-3.884983 6.68807,-9.142559 10.91113,-11.326388 4.80964,-2.487164 13.94276,-2.9343 19.16879,-0.93846 C 514.02815,65.176168 522,72.232218 522,74.542538 c 0,0.718984 -2.45448,2.636648 -5.45441,4.261475 -5.41656,2.933737 -5.46684,2.940485 -7.24763,0.97273 -4.53102,-5.006711 -10.73581,-6.072908 -14.70455,-2.526743 -6.90507,6.169857 -3.32569,11.526999 12.86169,19.24968 12.98434,6.19458 18.62237,11.13373 20.54411,17.99752 5.07918,18.14102 -12.92669,35.59621 -32.49921,31.50528 z m 107.72624,-0.11458 c -15.03573,-2.50404 -27.2284,-14.92358 -30.21225,-30.77439 -4.15986,-22.097945 4.08564,-42.244268 20.33047,-49.673703 7.18148,-3.284384 19.58893,-4.36817 27.76919,-2.425628 6.54389,1.553958 14.71995,6.590037 18.28308,11.261535 4.39503,5.762182 7.7711,15.442625 8.3559,23.959416 l 0.53112,7.73512 -30.39188,0.26488 L 587.5,106.5 l 0.28876,4.5 c 0.80117,12.48517 11.58373,22.37715 24.19686,22.19831 8.92142,-0.12649 15.37722,-3.57513 20.85924,-11.14284 1.75003,-2.41585 3.22942,-3.52919 4.18163,-3.14696 2.9888,1.19975 10.97351,6.30491 10.97351,7.0161 0,0.40401 -2.42187,3.41081 -5.38192,6.68178 -6.41223,7.08575 -13.12755,10.97049 -22.33769,12.92212 -7.52581,1.59472 -9.39947,1.6342 -17.05415,0.35939 z M 633,93.467881 c 0,-2.719229 -3.03233,-8.890162 -5.80305,-11.809464 -8.43841,-8.890939 -23.8203,-8.944155 -32.6515,-0.112962 -2.74192,2.741923 -6.48011,9.735556 -6.52349,12.204545 C 588.00503,94.713614 593.15495,95 610.5,95 630.04297,95 633,94.798643 633,93.467881 Z M 812,145.65133 C 793.45018,141.38585 782.60195,126.05317 782.53069,104 c -0.0394,-12.183406 2.58211,-20.254168 9.28341,-28.580997 6.60872,-8.211781 14.8102,-12.384987 25.75546,-13.105285 10.50685,-0.691447 17.7351,1.895699 24.66895,8.829552 2.6712,2.671201 5.31197,4.85673 5.86837,4.85673 0.60076,0 0.88604,-2.335407 0.70238,-5.75 L 848.5,64.5 h 7.5 7.5 v 39.5 39.5 l -7.25,0.29381 c -7.95419,0.32235 -7.27914,0.91411 -7.75,-6.79381 -0.11759,-1.925 -0.2782,-3.84011 -0.3569,-4.25581 -0.0787,-0.41569 -2.16528,1.29541 -4.63683,3.80245 -8.12933,8.24608 -20.14271,11.71771 -31.50627,9.10469 z m 22.51714,-14.76439 c 11.7993,-5.54633 17.49316,-21.93883 13.0157,-37.471916 -2.34141,-8.122752 -9.81472,-15.563475 -17.4781,-17.401892 -18.57618,-4.456358 -34.2249,9.852634 -32.81211,30.002978 0.78347,11.17454 6.96372,21.35508 15.24879,25.11891 5.73778,2.60662 16.20339,2.48874 22.02572,-0.24808 z M 540.76372,111.29353 540.5,78.5 536.25,78.192502 532,77.885004 V 71 64.114996 l 4.25,-0.307498 4.25,-0.307498 0.27628,-15.293279 0.27628,-15.293279 7.22372,0.293279 L 555.5,33.5 555.77605,48.75 556.05209,64 H 563.52605 571 v 6.957936 6.957935 L 563.45678,78.207936 555.91356,78.5 555.70678,111 555.5,143.5 l -7.23628,0.29353 -7.23628,0.29354 z M 660,104 V 64 h 7.5 7.5 v 4.5 c 0,5.109121 0.58799,5.475809 3.46816,2.162861 6.19983,-7.131404 15.81182,-9.994657 25.63849,-7.637277 4.27889,1.026491 6.39287,2.3435 10.74104,6.691674 l 5.41365,5.413651 3.90385,-4.06274 c 6.54902,-6.815581 10.91357,-8.568272 21.33481,-8.567515 7.70049,5.6e-4 9.54456,0.339126 12.77141,2.344792 4.95367,3.078974 8.31662,7.617603 10.96624,14.799993 2.02351,5.485189 2.16301,7.684207 2.21106,34.854561 l 0.0513,29 h -7.5 -7.5 l -0.5,-29 C 755.56464,89.249326 755.27106,85.081035 753.72919,82.259418 750.0267,75.483861 741.43999,73.156318 733.7966,76.85642 724.80834,81.207562 723,88.468928 723,120.2101 V 144 h -7.5 -7.5 v -26.3185 c 0,-29.080836 -0.74847,-34.165233 -5.72649,-38.900564 -5.40572,-5.142175 -14.6838,-4.941653 -20.18443,0.436236 -6.16857,6.030913 -6.442,7.525029 -6.86866,37.532828 L 674.83296,144 H 667.41648 660 Z m 220,0 V 64 h 7.5 7.5 v 40 40 h -7.5 -7.5 z m 32.4565,38.74723 c -0.26441,-0.68902 -0.36278,-18.57652 -0.21862,-39.75 L 912.5,64.5 919.75,64.20619 927,63.912381 v 6.043809 c 0,3.324096 0.3375,6.016313 0.75,5.982706 0.4125,-0.03361 2.11145,-1.935901 3.77545,-4.227318 3.92309,-5.402312 8.53674,-8.448399 14.04781,-9.274835 5.3186,-0.797573 12.47296,0.145347 14.97294,1.973382 1.72611,1.262159 1.65463,1.653103 -1.44012,7.876551 l -3.25637,6.548474 -3.64631,-1.523525 c -7.62511,-3.185973 -17.93234,0.395942 -21.61128,7.510243 C 927.92219,89.984943 927,99.44829 927,121.68366 V 144 h -7.03138 c -4.71091,0 -7.19004,-0.41344 -7.51212,-1.25277 z M 880.67204,34.956669 c -4.9194,-3.869602 -4.42622,-12.92204 0.8939,-16.407921 5.12747,-3.359641 13.46648,-0.763097 15.40459,4.796573 1.35088,3.875119 -0.29574,10.068627 -3.22172,12.118067 -3.17695,2.225221 -9.93667,1.963285 -13.07677,-0.506719 z"
       id="path54"
       inkscape:connector-curvature="0" />
  </g>
</svg>
