<?xml version="1.0" encoding="UTF-8" standalone="no"?>
<!-- Created with Inkscape (http://www.inkscape.org/) -->

<svg
   xmlns:dc="http://purl.org/dc/elements/1.1/"
   xmlns:cc="http://creativecommons.org/ns#"
   xmlns:rdf="http://www.w3.org/1999/02/22-rdf-syntax-ns#"
   xmlns:svg="http://www.w3.org/2000/svg"
   xmlns="http://www.w3.org/2000/svg"
   xmlns:sodipodi="http://sodipodi.sourceforge.net/DTD/sodipodi-0.dtd"
   xmlns:inkscape="http://www.inkscape.org/namespaces/inkscape"
   version="1.1"
   id="svg3680"
   width="284.95056"
   height="281.79416"
   viewBox="0 0 284.95056 281.79416"
   sodipodi:docname="solutions-design-icon.svg"
   inkscape:version="0.92.1 r15371">
  <metadata
     id="metadata3686">
    <rdf:RDF>
      <cc:Work
         rdf:about="">
        <dc:format>image/svg+xml</dc:format>
        <dc:type
           rdf:resource="http://purl.org/dc/dcmitype/StillImage" />
        <dc:title></dc:title>
      </cc:Work>
    </rdf:RDF>
  </metadata>
  <defs
     id="defs3684" />
  <sodipodi:namedview
     pagecolor="#ffffff"
     bordercolor="#666666"
     borderopacity="1"
     objecttolerance="10"
     gridtolerance="10"
     guidetolerance="10"
     inkscape:pageopacity="0"
     inkscape:pageshadow="2"
     inkscape:window-width="1838"
     inkscape:window-height="1051"
     id="namedview3682"
     showgrid="false"
     fit-margin-top="0"
     fit-margin-left="0"
     fit-margin-right="0"
     fit-margin-bottom="0"
     inkscape:zoom="2.86"
     inkscape:cx="140.30372"
     inkscape:cy="135.10007"
     inkscape:window-x="-9"
     inkscape:window-y="-9"
     inkscape:window-maximized="1"
     inkscape:current-layer="svg3680" />
  <path
     style="fill:#000000"
     d="m 32.450578,267.27208 v -14.52207 h 19.027457 19.027456 l -0.277456,14.25 -0.277457,14.25 -18.75,0.27207 -18.75,0.27206 z m 179.999982,-0.0221 v -14.5 h 18.5 18.5 v 14.5 14.5 h -18.5 -18.5 z M 4.8036719,245.82982 c -6.8758445,-4.20609 -6.2419515,-14.55699 1.078798,-17.6158 3.016505,-1.26038 21.9034471,-1.46349 135.7859701,-1.46027 130.44625,0.004 132.32757,0.0315 135.55705,2.00046 5.90208,3.5985 6.68574,11.33538 1.62931,16.08587 l -2.56513,2.40993 -134.16956,0.25242 C 11.213928,247.74871 7.8740369,247.70803 4.8036719,245.82982 Z M 20.975852,217.50001 c 1.126485,-3.41024 18.807565,-61.51722 32.102061,-105.49999 l 2.493694,-8.25 h 85.396463 85.39649 l 3.98265,12.75 c 2.19046,7.0125 10.11062,32.91792 17.60034,57.56762 7.48973,24.6497 13.86503,45.4622 14.16734,46.25 0.47518,1.23832 -15.91707,1.43237 -120.99664,1.43237 H 19.571974 Z M 192.45056,206.55935 c 0,-0.65487 -4.725,-18.67483 -10.5,-40.04436 -5.775,-21.36953 -10.5,-39.05872 -10.5,-39.30933 0,-0.2506 -13.61464,-0.45564 -30.25475,-0.45564 h -30.25475 l -10.75874,39.74999 c -5.917285,21.8625 -10.752647,40.0875 -10.745227,40.5 0.007,0.4125 23.188467,0.75 51.513467,0.75 39.16448,0 51.5,-0.28519 51.5,-1.19066 z m 49.99721,-76.82095 c -0.66125,-2.75639 -0.90708,-5.78088 -0.54629,-6.72108 0.36079,-0.94019 7.4281,-12.66379 15.70513,-26.052435 8.27703,-13.388653 14.89048,-24.475256 14.69655,-24.636904 -0.19393,-0.161647 -10.7026,-4.234345 -23.3526,-9.050441 -12.65,-4.816095 -24.73751,-9.448881 -26.86114,-10.295079 -3.73062,-1.486533 -3.84332,-1.671376 -3.33408,-5.46808 0.28988,-2.161246 0.72514,-4.127619 0.96724,-4.369718 0.75905,-0.759046 65.22798,24.433237 65.22798,25.488893 0,1.327592 -39.81134,66.052004 -40.65026,66.088314 -0.35764,0.0155 -1.19128,-2.22708 -1.85253,-4.98347 z M 202.95056,69.314907 c -4.4,-1.791408 -17.225,-6.761477 -28.5,-11.044598 -11.275,-4.283122 -20.82283,-8.072698 -21.21739,-8.421282 -0.39456,-0.348583 5.83997,-8.950963 13.85452,-19.116399 8.01455,-10.165435 15.12887,-19.268867 15.8096,-20.229849 1.14838,-1.6211384 2.41285,-1.3000104 17.52054,4.449539 l 16.28284,6.196777 -0.58751,6.550461 c -0.32313,3.602754 -1.14365,15.212962 -1.82337,25.800462 -0.77965,12.143743 -1.62411,19.217144 -2.28755,19.160997 -0.57842,-0.04895 -4.65168,-1.5547 -9.05168,-3.346108 z M 201.2082,10.943769 c -5.35829,-2.0315634 -9.74579,-4.0527374 -9.75,-4.4914997 -0.0163,-1.703765 5.39885,-5.68788356 8.52908,-6.27511756 4.29665,-0.806056 8.2711,1.15554996 11.22157,5.53844556 2.29614,3.4108983 2.69994,8.1206287 0.74171,8.6510527 -0.55,0.148978 -5.38406,-1.391318 -10.74236,-3.422881 z"
     id="path3690"
     inkscape:connector-curvature="0" />
</svg>
