<?xml version="1.0" encoding="UTF-8" standalone="no"?>
<!-- Created with Inkscape (http://www.inkscape.org/) -->

<svg
   xmlns:dc="http://purl.org/dc/elements/1.1/"
   xmlns:cc="http://creativecommons.org/ns#"
   xmlns:rdf="http://www.w3.org/1999/02/22-rdf-syntax-ns#"
   xmlns:svg="http://www.w3.org/2000/svg"
   xmlns="http://www.w3.org/2000/svg"
   xmlns:sodipodi="http://sodipodi.sourceforge.net/DTD/sodipodi-0.dtd"
   xmlns:inkscape="http://www.inkscape.org/namespaces/inkscape"
   version="1.1"
   id="svg10"
   width="296.81885"
   height="74"
   viewBox="0 0 296.81885 74"
   sodipodi:docname="1_icon_comp.svg"
   inkscape:version="0.92.1 r15371">
  <metadata
     id="metadata16">
    <rdf:RDF>
      <cc:Work
         rdf:about="">
        <dc:format>image/svg+xml</dc:format>
        <dc:type
           rdf:resource="http://purl.org/dc/dcmitype/StillImage" />
        <dc:title></dc:title>
      </cc:Work>
    </rdf:RDF>
  </metadata>
  <defs
     id="defs14" />
  <sodipodi:namedview
     pagecolor="#ffffff"
     bordercolor="#666666"
     borderopacity="1"
     objecttolerance="10"
     gridtolerance="10"
     guidetolerance="10"
     inkscape:pageopacity="0"
     inkscape:pageshadow="2"
     inkscape:window-width="1839"
     inkscape:window-height="1051"
     id="namedview12"
     showgrid="false"
     fit-margin-top="0"
     fit-margin-left="0"
     fit-margin-right="0"
     fit-margin-bottom="0"
     inkscape:zoom="3.0311311"
     inkscape:cx="96.675008"
     inkscape:cy="70.551187"
     inkscape:window-x="-9"
     inkscape:window-y="-9"
     inkscape:window-maximized="1"
     inkscape:current-layer="svg10" />
  <path
     style="fill:#353535"
     d="m 80.681771,72.248445 c -6.853865,-3.49487 -7.513228,-5.459398 -8.071085,-24.047259 l -0.5,-16.660059 L 37.144974,20.487103 2.1792623,9.43308 0.90678624,5.038062 C 0.20692434,2.620802 -0.16816056,0.445514 0.07326424,0.20409 0.41342664,-0.136073 66.638348,15.979713 85.81309,21.068813 l 3.702404,0.982642 -2.452404,3.613819 c -2.380309,3.50758 -2.452294,4.146226 -2.448666,21.724272 0.0034,16.29029 0.202892,18.437089 1.985302,21.360453 1.08986,1.7875 2.438177,3.25 2.996262,3.25 0.558084,0 1.014698,0.45 1.014698,1 0,1.614749 -6.210169,1.14468 -9.928915,-0.751554 z M 208.0334,71.080674 c 3.81841,-3.985561 4.15274,-6.463072 3.57729,-26.509247 -0.47609,-16.585071 -0.61286,-17.537901 -2.86022,-19.926466 l -2.36022,-2.508515 3.86022,-1.027705 C 219.99726,18.513857 295.59775,0 296.44706,0 c 0.57396,0 0.47633,1.881927 -0.24416,4.706248 l -1.20058,4.706248 -7.44581,2.354295 c -4.0952,1.294862 -20.04582,6.312244 -35.44582,11.149738 l -28,8.795444 -0.5,16.894013 c -0.41733,14.100902 -0.79916,17.334656 -2.30945,19.559221 -2.06625,3.043457 -8.23653,5.834792 -12.89788,5.834792 h -3.16685 z m -75.92271,-4.987881 c -4.39911,-1.093175 -6.97447,-2.679531 -9.79838,-6.035549 -8.43571,-10.025269 0.0797,-25.057245 14.19455,-25.057245 10.39773,0 17.94712,7.826027 16.8593,17.477104 -1.10848,9.834382 -10.99273,16.165969 -21.25547,13.61569 z m 8.5,-11.092794 c 2.69102,-2.691022 2.51805,-5.572863 -0.51665,-8.607558 -5.48881,-5.488812 -12.47097,1.897127 -7.92665,8.385052 1.94357,2.774827 5.78962,2.876182 8.4433,0.222506 z M 92.610686,51.049903 V 35.999999 h 6.000001 6.000003 l 0.0118,4.75 0.0118,4.75 3.10657,-4.75 3.10658,-4.75 h 6.37908 6.37908 l -5.02655,7.044438 -5.02655,7.044438 5.02913,7.274891 c 2.76595,4.00119 5.02906,7.581192 5.02906,7.955562 0,0.374369 -2.89904,0.680671 -6.44231,0.680671 h -6.44232 l -2.80768,-5.019901 -2.80769,-5.019901 -0.5,4.769901 -0.5,4.769901 -5.750003,0.299904 -5.750001,0.299904 z m 62.666674,14.283429 c -0.36667,-0.366666 -0.66667,-7.116666 -0.66667,-15 V 35.999999 h 9.9349 c 12.13385,0 14.69258,0.864196 16.68623,5.635664 1.8105,4.333142 1.14631,7.832091 -2.02252,10.654648 l -2.3034,2.051691 3.1024,4.994889 3.10239,4.99489 0.27746,-14.165891 0.27745,-14.165891 h 10.47255 10.47254 v 4 4 h -4.5 c -3.83333,0 -4.5,0.296296 -4.5,2 0,1.666667 0.66667,2 4,2 h 4 v 4 c 0,3.990741 -0.009,4 -3.94521,4 h -3.94521 l -0.30479,4.75 -0.30479,4.75 -12.0389,0.279085 -12.0389,0.279084 -2.14907,-4.279084 -2.14906,-4.279085 -0.062,4.25 -0.062,4.25 h -5.33333 c -2.93334,0 -5.63334,-0.3 -6,-0.666667 z m 15.33333,-18.833333 c 0,-1.833333 -0.53333,-2.5 -2,-2.5 -1.46667,0 -2,0.666667 -2,2.5 0,1.833333 0.53333,2.5 2,2.5 1.46667,0 2,-0.666667 2,-2.5 z M 40.123366,49.699272 c -21.27648,-6.759938 -29.0714,-9.646409 -29.303402,-10.851095 -0.252085,-1.308972 4.807033,-0.02165 24.987321,6.35817 34.497763,10.906165 35.116627,11.124403 35.570404,12.543652 0.219815,0.6875 -0.200336,1.229545 -0.93367,1.204545 -0.733333,-0.025 -14.377627,-4.189873 -30.320653,-9.255272 z m 185.487324,7.839271 c 0,-0.836028 1.60481,-1.909435 3.75,-2.508261 2.0625,-0.575743 15.675,-4.796156 30.25,-9.378695 23.22657,-7.302687 29.61785,-8.680287 26.3625,-5.682267 -0.74763,0.688535 -58.41642,19.030679 -59.83358,19.030679 -0.29091,0 -0.52892,-0.657655 -0.52892,-1.461456 z M 39.610686,43.967716 C 15.872224,36.416765 9.0327804,33.871627 8.7592634,32.487087 c -0.271,-1.371807 0.07227,-1.615777 1.4999986,-1.066079 1.018283,0.392054 14.901424,4.806134 30.851424,9.809066 15.95,5.002932 29.4275,9.472819 29.95,9.933083 3.660819,3.224766 -4.717378,1.307919 -31.45,-7.195441 z m 186.000004,8.0913 c 0,-0.517541 0.34426,-1.153748 0.76502,-1.413794 1.83734,-1.135534 61.69333,-19.520207 62.13031,-19.083225 1.48207,1.482069 -5.23131,4.115616 -31.43702,12.332208 -15.97293,5.008187 -29.58543,9.105794 -30.25,9.105794 -0.66457,0 -1.20831,-0.423442 -1.20831,-0.940983 z M 39.110686,38.387181 C 12.197081,29.828036 5.209848,27.067505 6.696454,25.580899 7.165243,25.11211 68.53633,44.217977 70.540557,45.456657 c 1.467401,0.906904 1.349426,2.5514 -0.179871,2.507278 -0.6875,-0.01984 -14.75,-4.329375 -31.25,-9.576754 z m 186.500004,8.230675 c 0,-0.861458 3.29632,-2.417646 8.75,-4.130857 50.29632,-15.800032 55.34853,-17.237131 55.04429,-15.657342 -0.21509,1.116845 -4.44585,2.896144 -13.80222,5.804684 -7.42064,2.306795 -21.43995,6.707756 -31.15402,9.779915 -9.71407,3.072159 -17.92657,5.585743 -18.25,5.585743 -0.32343,0 -0.58805,-0.621964 -0.58805,-1.382143 z M 38.123359,32.633052 C 14.523138,25.149065 6.05305,22.058489 5.819546,20.846 c -0.25661,-1.332472 3.1464484,-0.547005 17.987326,4.151692 10.067098,3.187293 24.941314,7.890412 33.053814,10.451376 13.438141,4.242168 16.171039,5.585246 14,6.880273 -0.4125,0.246056 -15.144297,-4.117274 -32.737327,-9.696289 z m 187.645411,8.814497 c 0.34891,-1.781263 4.2835,-3.145509 48.64308,-16.866099 13.86833,-4.289527 17.24008,-5.034132 16.99331,-3.75274 -0.22227,1.154152 -8.78538,4.265534 -30.80116,11.191519 -16.77132,5.276119 -31.54717,9.948432 -32.83523,10.382919 -1.9139,0.645596 -2.27943,0.470948 -2,-0.955599 z M 36.117818,26.625207 C 12.843758,19.209774 4.0401151,15.991322 3.8136517,14.815392 3.5653537,13.526085 7.712775,14.517828 24.306518,19.715707 63.691636,32.05283 70.953771,34.529255 71.36498,35.76288 c 0.233416,0.700248 -0.383236,1.197752 -1.420961,1.146405 -1.008333,-0.04989 -16.230123,-4.677728 -33.826201,-10.284078 z m 189.492872,9.047848 c 0,-0.867868 11.33037,-4.857145 32.75,-11.530857 18.0125,-5.612153 33.29838,-10.190028 33.96862,-10.173056 2.9606,0.07497 -0.26951,2.834504 -5.01061,4.280644 -2.86441,0.873707 -17.60287,5.449931 -32.75215,10.169386 -15.14928,4.719455 -27.86178,8.580827 -28.25,8.580827 -0.38822,0 -0.70586,-0.597125 -0.70586,-1.326944 z"
     id="path66"
     inkscape:connector-curvature="0"
     sodipodi:nodetypes="sscccscscscssssssscssccsscssscsscssscccccccccccccccccsscccccccccscscccccccccccssscsscccccccccsccsssssssssssssscssscsssssccsssssscssscsssssssscssscssssssscssssssss" />
</svg>
